<?xml version="1.0" standalone="no"?>
<!DOCTYPE svg PUBLIC "-//W3C//DTD SVG 20010904//EN"
 "http://www.w3.org/TR/2001/REC-SVG-20010904/DTD/svg10.dtd">
<svg version="1.0" xmlns="http://www.w3.org/2000/svg"
 width="260.000000pt" height="260.000000pt" viewBox="0 0 260.000000 260.000000"
 preserveAspectRatio="xMidYMid meet">
<metadata>
Created by potrace 1.11, written by Peter Selinger 2001-2013
</metadata>
<g transform="translate(0.000000,260.000000) scale(0.100000,-0.100000)"
fill="#000000" stroke="none">
<path d="M1149 2369 c-26 -4 -56 -12 -68 -18 -12 -7 -27 -9 -33 -5 -7 5 -8 3
-3 -6 6 -10 4 -12 -8 -7 -26 10 -101 -65 -126 -125 -12 -29 -33 -74 -46 -99
-29 -55 -55 -149 -55 -201 l0 -38 -53 6 c-41 5 -61 2 -83 -10 -16 -10 -20 -14
-9 -10 17 7 62 8 123 4 9 -1 39 4 65 11 37 10 56 10 79 1 24 -9 27 -8 19 2
-17 20 23 49 77 57 l47 6 -46 2 c-34 1 -54 -5 -74 -21 l-28 -22 5 107 c5 98 4
108 -13 118 -10 5 -19 14 -19 20 0 5 10 3 23 -5 12 -8 31 -14 42 -14 11 1 51
-13 88 -32 62 -30 79 -34 176 -38 97 -4 111 -2 152 19 53 27 199 40 224 19 15
-13 48 -93 60 -148 7 -32 6 -33 -22 -26 -25 5 -24 4 9 -13 23 -13 48 -18 68
-15 22 3 40 -2 61 -17 17 -13 39 -20 52 -18 19 4 19 4 -4 6 -14 0 -34 10 -44
21 -18 20 -20 54 -12 220 1 25 -7 46 -26 71 -15 20 -27 41 -27 46 0 6 -7 16
-15 23 -9 7 -14 19 -11 26 3 8 0 11 -10 7 -8 -3 -29 1 -47 8 l-32 14 30 6 c24
4 16 7 -37 13 -38 5 -68 12 -68 16 0 5 -19 6 -42 3 -28 -4 -39 -3 -34 5 14 22
-212 46 -305 31z m394 -236 c-13 -2 -33 -2 -45 0 -13 2 -3 4 22 4 25 0 35 -2
23 -4z m118 -70 c13 -16 12 -17 -3 -4 -10 7 -18 15 -18 17 0 8 8 3 21 -13z"/>
<path d="M629 2080 c9 -9 22 -14 29 -12 11 4 11 6 0 13 -9 6 -4 9 15 9 15 0
27 -4 27 -10 0 -5 11 -10 24 -10 23 0 51 -22 40 -32 -2 -3 3 -8 12 -12 15 -6
15 -4 2 16 -8 12 -21 25 -29 29 -46 22 -68 28 -100 27 -32 -2 -34 -3 -20 -18z"/>
<path d="M572 2081 c-11 -6 -9 -9 5 -13 12 -3 20 0 20 8 0 16 -6 17 -25 5z"/>
<path d="M516 2043 c-6 -14 -5 -15 5 -6 7 7 10 15 7 18 -3 3 -9 -2 -12 -12z"/>
<path d="M474 2029 c-19 -22 -19 -22 4 -8 12 8 22 17 22 21 0 12 -6 9 -26 -13z"/>
<path d="M495 1970 c-3 -5 1 -10 10 -10 9 0 13 5 10 10 -3 6 -8 10 -10 10 -2
0 -7 -4 -10 -10z"/>
<path d="M710 1959 c0 -7 -10 -9 -25 -7 -14 3 -25 1 -25 -3 0 -14 43 -10 64 6
17 13 18 15 3 15 -9 0 -17 -5 -17 -11z"/>
<path d="M545 1949 c26 -10 63 -11 68 -1 3 4 -16 8 -42 8 -32 1 -40 -1 -26 -7z"/>
<path d="M1089 1921 c12 -8 51 -4 51 5 0 2 -15 4 -32 4 -23 0 -29 -3 -19 -9z"/>
<path d="M1169 1901 c10 -10 30 -21 44 -25 15 -3 32 -17 39 -30 12 -22 14 -23
28 -8 13 14 12 15 -2 10 -10 -4 -19 -1 -22 8 -3 8 -21 21 -40 29 -19 8 -37 19
-41 25 -3 5 -10 10 -16 10 -5 0 -1 -8 10 -19z"/>
<path d="M1548 1913 c7 -3 16 -2 19 1 4 3 -2 6 -13 5 -11 0 -14 -3 -6 -6z"/>
<path d="M1505 1900 c-3 -6 -26 -15 -50 -21 -45 -11 -82 -39 -53 -39 25 0 50
-25 58 -60 l8 -35 1 32 c1 23 -6 37 -24 51 -33 26 -32 32 5 32 17 0 30 3 30 8
0 4 12 15 28 24 15 10 22 18 15 18 -6 0 -15 -5 -18 -10z"/>
<path d="M1690 1860 c0 -5 5 -10 11 -10 5 0 7 5 4 10 -3 6 -8 10 -11 10 -2 0
-4 -4 -4 -10z"/>
<path d="M824 1842 c-18 -13 -17 -14 6 -7 30 9 46 22 27 22 -8 0 -23 -7 -33
-15z"/>
<path d="M1350 1840 c8 -5 20 -10 25 -10 6 0 3 5 -5 10 -8 5 -19 10 -25 10 -5
0 -3 -5 5 -10z"/>
<path d="M1882 1825 c12 -14 23 -23 25 -21 6 5 -29 46 -39 46 -4 0 2 -11 14
-25z"/>
<path d="M585 1821 c-6 -5 -28 -11 -50 -14 l-40 -4 46 -1 c34 -2 49 2 53 13 6
17 4 19 -9 6z"/>
<path d="M615 1810 c-3 -5 -2 -10 4 -10 5 0 13 5 16 10 3 6 2 10 -4 10 -5 0
-13 -4 -16 -10z"/>
<path d="M1938 1813 c12 -3 30 -15 38 -29 10 -14 25 -23 38 -23 20 2 20 2 1 6
-12 2 -26 13 -33 23 -11 17 -10 20 8 20 11 0 20 -4 20 -9 0 -6 12 -6 30 1 36
12 93 3 115 -18 8 -9 15 -11 15 -5 0 24 -56 38 -155 38 -55 0 -90 -2 -77 -4z"/>
<path d="M456 1791 c-4 -5 -29 -14 -57 -20 -51 -11 -114 -39 -106 -47 2 -2 17
2 33 11 16 8 50 18 77 21 26 4 47 11 47 16 0 5 10 13 23 18 16 6 17 9 5 9 -9
1 -19 -3 -22 -8z"/>
<path d="M2198 1783 c12 -2 30 -2 40 0 9 3 -1 5 -23 4 -22 0 -30 -2 -17 -4z"/>
<path d="M2267 1769 c7 -7 15 -10 18 -7 3 3 -2 9 -12 12 -14 6 -15 5 -6 -5z"/>
<path d="M1508 1763 c12 -2 30 -2 40 0 9 3 -1 5 -23 4 -22 0 -30 -2 -17 -4z"/>
<path d="M1589 1744 c14 -10 21 -23 18 -34 -3 -13 0 -17 9 -13 8 3 14 8 14 12
0 10 -44 51 -55 51 -5 0 1 -7 14 -16z"/>
<path d="M2048 1750 c6 -8 12 -22 12 -32 0 -19 -35 -42 -50 -33 -6 3 -10 -2
-10 -12 0 -11 -5 -24 -12 -31 -17 -17 -63 -15 -78 3 -11 13 -14 13 -24 1 -25
-33 -59 -29 -101 10 -30 29 -49 38 -77 39 -28 0 -34 -2 -27 -12 8 -9 15 -9 29
0 16 10 25 6 57 -26 30 -31 35 -41 27 -55 -6 -9 -23 -18 -38 -20 -14 -2 -26
-9 -26 -17 0 -25 -52 -57 -85 -52 -22 3 -36 -2 -52 -19 -29 -32 -95 -34 -116
-3 -9 13 -17 16 -22 10 -11 -19 -63 -13 -79 10 -13 19 -17 20 -50 8 -32 -12
-38 -11 -65 9 -27 20 -30 20 -43 5 -11 -15 -11 -16 6 -10 12 5 26 1 37 -9 14
-12 29 -15 62 -10 33 5 47 3 57 -9 7 -9 28 -15 50 -15 21 0 51 -7 67 -17 33
-18 72 -13 99 15 10 9 29 17 43 18 14 0 36 4 47 7 18 7 22 3 26 -22 3 -22 0
-31 -11 -34 -9 -3 -6 -5 8 -6 22 -1 23 2 18 39 -3 22 -2 38 3 35 4 -3 13 8 20
23 6 15 25 38 41 51 28 22 31 22 48 7 21 -19 38 -21 22 -3 -16 20 27 37 76 30
34 -4 43 -2 60 21 12 14 25 26 30 26 15 0 43 34 43 52 0 9 -8 22 -17 29 -15
11 -16 11 -5 -1z"/>
<path d="M2158 1753 c7 -3 16 -2 19 1 4 3 -2 6 -13 5 -11 0 -14 -3 -6 -6z"/>
<path d="M2286 1733 c-6 -14 -5 -15 5 -6 7 7 10 15 7 18 -3 3 -9 -2 -12 -12z"/>
<path d="M249 1704 c-14 -17 -3 -45 22 -52 8 -2 5 3 -6 11 -19 15 -19 16 -1
36 11 12 14 21 9 21 -6 0 -16 -7 -24 -16z"/>
<path d="M2250 1705 c0 -8 2 -15 4 -15 2 0 6 7 10 15 3 8 1 15 -4 15 -6 0 -10
-7 -10 -15z"/>
<path d="M1625 1680 c-3 -5 -1 -10 4 -10 6 0 11 5 11 10 0 6 -2 10 -4 10 -3 0
-8 -4 -11 -10z"/>
<path d="M2235 1670 c-3 -5 -15 -10 -26 -10 -10 0 -19 -4 -19 -9 0 -12 -56
-31 -94 -31 -20 0 -36 -7 -44 -20 -15 -24 -67 -27 -91 -6 -14 12 -18 12 -30
-1 -12 -13 -11 -14 7 -9 11 4 23 2 27 -4 11 -18 71 -11 90 10 11 12 31 20 52
20 32 0 127 42 139 61 3 5 3 9 0 9 -3 0 -8 -4 -11 -10z"/>
<path d="M330 1660 c-8 -5 -10 -10 -5 -10 6 0 15 -10 20 -22 7 -17 21 -24 52
-29 31 -4 40 -2 33 6 -6 7 -6 16 -2 21 4 4 -1 3 -10 -5 -9 -7 -27 -11 -40 -9
-18 2 -23 9 -23 31 1 29 -2 32 -25 17z"/>
<path d="M759 1666 c-1 -3 -2 -9 -3 -13 -1 -5 -4 -13 -8 -18 -4 -6 2 -16 13
-23 16 -10 21 -10 26 5 4 9 1 19 -5 21 -7 2 -10 8 -7 12 3 5 1 11 -5 15 -5 3
-11 4 -11 1z"/>
<path d="M546 1615 c-22 -29 -34 -35 -64 -35 -29 -1 -34 -3 -20 -11 20 -11 88
13 88 32 0 6 7 8 18 4 13 -5 14 -4 5 6 -9 9 -10 16 -2 26 7 7 9 13 6 13 -2 0
-17 -16 -31 -35z"/>
<path d="M446 1625 c-3 -8 -1 -15 4 -15 13 0 22 18 11 24 -5 3 -11 -1 -15 -9z"/>
<path d="M690 1605 c-14 -8 -36 -15 -50 -16 -17 -1 -20 -3 -7 -6 9 -2 33 1 51
7 31 10 37 9 56 -10 11 -11 33 -23 48 -26 29 -6 72 -66 72 -101 0 -21 18 -43
34 -43 6 0 3 5 -6 11 -12 6 -18 22 -18 43 0 20 -8 40 -20 51 -28 25 -25 35 9
35 22 0 28 -4 26 -17 -1 -10 0 -13 2 -7 2 6 29 9 71 7 37 -2 81 -4 99 -4 18 1
35 -4 38 -9 3 -6 16 -10 28 -10 22 0 22 1 -2 13 -23 12 -31 32 -12 32 5 0 13
3 17 8 4 4 14 7 22 7 12 0 11 -4 -4 -22 -12 -15 -13 -18 -3 -10 9 7 24 9 33 6
11 -4 16 -2 14 7 -2 8 3 13 10 11 6 -1 12 2 12 8 0 14 -81 12 -113 -2 -15 -7
-27 -16 -27 -20 0 -13 -55 -9 -68 4 -9 9 -15 9 -24 0 -18 -18 -52 -15 -81 8
-18 14 -28 17 -33 9 -13 -21 -96 -4 -121 25 -26 30 -21 29 -53 11z"/>
<path d="M796 1613 c-11 -11 -6 -23 9 -23 8 0 15 4 15 9 0 13 -16 22 -24 14z"/>
<path d="M906 1611 c-4 -6 -2 -11 4 -11 7 0 9 -7 5 -17 -5 -14 -3 -15 5 -6 8
7 9 17 2 28 -6 12 -11 14 -16 6z"/>
<path d="M1270 1585 c-13 -14 -20 -28 -17 -32 4 -3 7 -1 7 5 0 7 5 12 11 12 5
0 8 -4 5 -9 -3 -5 1 -12 10 -15 24 -9 26 -8 14 15 -7 11 -9 27 -6 35 8 20 3
18 -24 -11z"/>
<path d="M1020 1581 c-6 -12 -7 -21 -1 -21 10 0 24 30 17 37 -2 3 -9 -5 -16
-16z"/>
<path d="M1888 1573 c7 -3 16 -2 19 1 4 3 -2 6 -13 5 -11 0 -14 -3 -6 -6z"/>
<path d="M1976 1535 c10 -8 31 -15 46 -15 36 0 60 -25 52 -56 -4 -14 -2 -24 5
-24 18 0 13 56 -7 73 -10 10 -33 17 -50 17 -17 0 -34 5 -37 10 -3 6 -11 10
-18 10 -6 0 -2 -7 9 -15z"/>
<path d="M1843 1505 c-15 -19 -33 -35 -39 -35 -7 0 -25 -7 -40 -15 -18 -9 -23
-15 -12 -15 9 0 19 4 22 9 3 4 19 11 36 14 16 4 30 12 30 19 0 6 10 22 22 35
12 13 19 23 15 23 -3 0 -19 -16 -34 -35z"/>
<path d="M1178 1513 c7 -3 16 -2 19 1 4 3 -2 6 -13 5 -11 0 -14 -3 -6 -6z"/>
<path d="M412 1474 c-12 -8 -22 -20 -22 -26 0 -6 -7 -20 -16 -29 -15 -17 -15
-20 0 -44 11 -16 26 -25 43 -25 15 0 35 -8 47 -17 20 -18 20 -18 0 8 -10 15
-23 25 -27 22 -17 -11 -57 8 -57 26 0 31 33 80 60 90 14 5 18 10 10 10 -9 1
-26 -6 -38 -15z"/>
<path d="M520 1480 c-8 -5 -10 -10 -5 -10 6 0 17 5 25 10 8 5 11 10 5 10 -5 0
-17 -5 -25 -10z"/>
<path d="M620 1473 c8 -13 20 -19 29 -15 13 5 13 6 0 10 -7 3 -20 10 -28 16
-12 9 -12 8 -1 -11z"/>
<path d="M1352 1465 c0 -16 2 -22 5 -12 2 9 2 23 0 30 -3 6 -5 -1 -5 -18z"/>
<path d="M683 1473 c9 -2 25 -2 35 0 9 3 1 5 -18 5 -19 0 -27 -2 -17 -5z"/>
<path d="M545 1460 c-3 -5 -1 -10 4 -10 6 0 11 5 11 10 0 6 -2 10 -4 10 -3 0
-8 -4 -11 -10z"/>
<path d="M752 1450 c7 -11 17 -20 22 -20 5 0 1 9 -9 20 -10 11 -20 20 -22 20
-2 0 2 -9 9 -20z"/>
<path d="M1172 1423 c-30 -45 -36 -60 -15 -37 21 21 47 64 39 64 -3 0 -13 -12
-24 -27z"/>
<path d="M1660 1431 c-8 -5 -28 -13 -45 -18 -36 -10 -46 -51 -19 -74 16 -13
16 -12 4 7 -18 29 -6 53 30 60 16 4 35 13 41 20 13 16 11 17 -11 5z"/>
<path d="M2115 1420 c16 -18 16 -21 2 -44 -9 -13 -26 -27 -37 -31 -11 -3 -20
-13 -20 -20 0 -8 -9 -19 -19 -25 -26 -13 -61 -13 -61 2 0 6 -7 4 -18 -5 -21
-20 -92 -23 -110 -5 -9 9 -18 9 -37 0 -36 -17 -65 -15 -107 6 l-35 18 -14 -35
c-22 -56 -21 -59 0 -19 l21 37 40 -16 c30 -12 50 -14 82 -7 32 7 50 6 71 -4
21 -11 35 -11 59 -3 17 6 47 11 65 11 26 0 42 8 63 30 15 17 33 30 39 30 6 0
19 16 28 35 13 28 14 37 3 50 -7 8 -17 15 -23 15 -5 0 -2 -9 8 -20z"/>
<path d="M396 1403 c-6 -14 -5 -15 5 -6 7 7 10 15 7 18 -3 3 -9 -2 -12 -12z"/>
<path d="M826 1393 c-6 -14 -5 -15 5 -6 7 7 10 15 7 18 -3 3 -9 -2 -12 -12z"/>
<path d="M912 1380 c0 -14 2 -19 5 -12 2 6 2 18 0 25 -3 6 -5 1 -5 -13z"/>
<path d="M510 1370 c0 -6 7 -10 15 -10 8 0 15 2 15 4 0 2 -7 6 -15 10 -8 3
-15 1 -15 -4z"/>
<path d="M602 1368 c-18 -18 -15 -28 8 -28 11 0 20 5 20 10 0 6 -5 10 -11 10
-5 0 -7 5 -4 10 8 14 2 13 -13 -2z"/>
<path d="M1173 1370 c2 -8 10 -15 18 -15 8 -1 25 -7 39 -14 l25 -12 -25 20
c-13 10 -28 17 -33 14 -5 -3 -14 1 -19 8 -8 12 -9 11 -5 -1z"/>
<path d="M781 1358 c-1 -9 -11 -24 -23 -32 -12 -9 -18 -16 -12 -16 17 0 47 38
41 52 -4 9 -6 7 -6 -4z"/>
<path d="M1360 1363 c-8 -3 -22 -11 -30 -18 -8 -8 -28 -15 -45 -18 l-30 -4 31
-2 c18 0 37 6 44 14 7 8 21 15 31 15 11 0 19 5 19 10 0 6 -1 10 -2 9 -2 0 -10
-3 -18 -6z"/>
<path d="M705 1350 c-8 -13 15 -13 35 0 12 8 11 10 -7 10 -12 0 -25 -4 -28
-10z"/>
<path d="M1700 1341 c0 -6 5 -13 10 -16 6 -3 10 1 10 9 0 9 -4 16 -10 16 -5 0
-10 -4 -10 -9z"/>
<path d="M557 1334 c-3 -4 -21 -10 -39 -14 l-33 -8 30 0 c37 -1 72 12 58 21
-6 4 -13 4 -16 1z"/>
<path d="M1736 1323 c-6 -14 -5 -15 5 -6 7 7 10 15 7 18 -3 3 -9 -2 -12 -12z"/>
<path d="M1995 1330 c-3 -5 -1 -10 4 -10 6 0 11 5 11 10 0 6 -2 10 -4 10 -3 0
-8 -4 -11 -10z"/>
<path d="M640 1314 c-30 -11 -31 -12 -10 -12 39 0 78 13 60 20 -8 3 -31 -1
-50 -8z"/>
<path d="M931 1310 c0 -8 4 -22 9 -30 12 -18 12 -2 0 25 -6 13 -9 15 -9 5z"/>
<path d="M1248 1278 c-4 -24 -2 -28 16 -28 13 0 16 3 10 8 -7 4 -14 16 -16 27
-3 17 -5 15 -10 -7z"/>
<path d="M955 1245 c5 -11 11 -45 13 -75 l4 -55 -36 -13 c-31 -12 -38 -20 -51
-66 -16 -53 -74 -124 -93 -112 -11 7 -180 -60 -204 -81 -10 -9 -15 -20 -11
-26 4 -7 0 -8 -12 -3 -15 5 -16 4 -6 -8 16 -19 11 -89 -5 -75 -7 5 -14 6 -16
1 -7 -17 -78 -53 -90 -46 -7 4 0 -5 15 -19 l28 -27 37 19 37 19 3 -194 c1
-150 -1 -194 -10 -194 -9 0 -10 -2 -2 -8 6 -4 15 -31 19 -59 l7 -53 -96 0 -96
0 0 30 c0 22 7 33 28 43 42 22 82 29 82 16 0 -7 2 -10 5 -7 3 3 0 48 -6 101
-10 79 -14 93 -25 82 -21 -21 -92 -29 -111 -13 -10 7 -14 8 -10 1 4 -6 -11
-43 -34 -82 -46 -80 -45 -88 18 -140 l38 -31 -127 0 -127 0 9 30 c5 18 5 28 0
25 -15 -9 -69 73 -64 98 2 12 -9 -14 -24 -58 -15 -44 -31 -86 -35 -92 -7 -10
104 -13 541 -13 480 0 551 -2 562 -15 12 -14 15 -14 30 0 10 9 35 15 62 15 35
0 50 -6 68 -25 l24 -25 26 25 c31 30 109 36 130 10 12 -14 15 -14 30 0 14 13
88 15 571 15 305 0 549 4 543 8 -7 4 -27 45 -45 92 -18 47 -37 88 -42 91 -5 4
-7 12 -3 18 4 6 2 9 -7 5 -7 -2 -19 -33 -26 -67 -7 -35 -16 -69 -21 -77 -5 -8
-2 -22 7 -37 l16 -24 -86 2 c-83 1 -85 2 -78 23 6 15 -1 41 -29 96 -28 57 -38
88 -39 129 0 30 -3 56 -6 59 -3 3 -5 -65 -5 -151 l0 -157 -44 0 c-43 0 -45 1
-49 33 l-4 32 -1 -32 c-2 -26 -6 -33 -22 -33 -17 0 -20 7 -20 43 0 23 -3 58
-6 78 l-6 35 36 -4 c39 -5 35 -13 59 110 l13 66 -35 6 c-20 3 -48 6 -62 6 -25
0 -27 4 -33 58 -4 31 -9 74 -12 95 l-6 37 34 -19 c28 -17 36 -18 51 -7 16 12
12 16 -38 36 -58 23 -67 40 -39 71 15 16 18 16 71 -7 31 -14 60 -21 64 -17 5
5 -25 20 -65 33 -58 20 -73 23 -72 11 1 -7 -5 -16 -11 -18 -8 -3 -13 4 -13 19
0 13 -4 28 -8 35 -10 16 -168 83 -195 83 -11 0 -30 8 -41 18 -21 17 -21 17 -3
-4 19 -23 22 -44 7 -44 -5 0 -10 -5 -10 -11 0 -6 -15 -28 -32 -49 -27 -32 -36
-36 -48 -27 -13 10 -13 10 -3 -4 11 -13 -4 -36 -93 -145 -58 -71 -107 -131
-109 -133 -8 -7 -105 201 -98 212 4 6 1 7 -7 2 -10 -6 -12 -4 -7 9 4 9 3 14
-2 11 -9 -5 -27 34 -22 44 2 2 -3 7 -9 11 -8 5 1 15 24 29 20 13 36 25 36 28
0 3 -11 -2 -25 -11 -14 -9 -36 -23 -49 -32 -14 -9 -27 -11 -30 -6 -3 6 -76 49
-161 97 -85 47 -157 91 -161 96 -3 6 -3 46 1 90 6 72 9 78 22 62 7 -10 2 7
-13 37 -26 54 -45 84 -29 45z m3 -245 c69 -36 68 -34 34 -78 l-32 -40 82 -73
c46 -40 72 -61 59 -47 l-24 27 38 50 39 50 68 -36 68 -35 -32 -57 c-56 -100
-49 -93 -73 -73 -20 17 -20 17 -1 -5 18 -22 18 -23 -5 -60 -12 -21 -31 -51
-42 -66 -19 -27 -20 -28 -41 -10 l-21 17 21 -23 c12 -13 26 -21 32 -18 5 4 46
65 91 137 75 117 104 157 100 133 -1 -4 -1 -23 0 -40 1 -26 5 -33 20 -33 14 0
32 -23 63 -77 24 -43 45 -81 46 -85 2 -5 -8 -8 -22 -8 -22 0 -25 5 -29 43 l-4
42 -1 -47 c-2 -47 -3 -48 -33 -48 -28 0 -31 3 -27 25 4 20 1 25 -16 25 -14 0
-17 -3 -9 -8 8 -5 15 -49 19 -124 l7 -117 31 -3 c17 -2 52 -1 79 0 l47 4 0 87
c0 54 5 92 12 99 7 7 40 12 79 12 l66 0 7 -37 c3 -21 6 -74 7 -118 1 -44 4
-70 6 -57 5 23 6 24 90 17 l86 -8 -7 84 c-4 46 -9 91 -12 100 -5 18 -85 29
-223 29 l-83 0 48 57 c26 32 56 66 65 75 10 10 22 25 26 33 6 10 31 17 76 22
62 5 67 8 67 29 0 17 4 22 15 18 9 -4 15 -18 14 -33 0 -14 11 -132 25 -261 14
-129 26 -254 26 -277 l0 -43 -198 0 c-141 0 -201 3 -210 12 -9 9 -15 9 -24 0
-7 -7 -33 -12 -58 -12 -37 0 -52 5 -70 25 l-24 25 -26 -25 c-20 -19 -37 -25
-71 -25 -25 0 -50 5 -57 12 -9 9 -15 9 -24 0 -8 -8 -60 -12 -169 -12 l-156 0
-7 73 c-4 40 -6 168 -6 284 l1 210 38 12 c21 6 40 11 42 11 2 0 3 -21 2 -47
-2 -27 0 -42 3 -35 10 22 94 15 123 -10 l26 -23 -26 30 c-14 17 -56 66 -94
110 -38 44 -75 87 -83 96 -11 14 -9 21 14 48 17 21 34 31 47 29 16 -2 23 5 30
30 6 17 12 32 14 32 2 0 20 -9 41 -20z m860 -144 c-1 -25 -6 -32 -17 -28 -9 3
-12 1 -7 -6 9 -15 -9 -23 -33 -14 -22 8 -22 8 6 45 36 47 54 48 51 3z m-938
-76 c0 -16 -42 -6 -65 16 -13 12 -26 20 -29 17 -2 -3 -3 3 -1 14 2 10 4 27 5
38 1 16 9 11 45 -28 25 -27 45 -53 45 -57z"/>
<path d="M900 936 c0 -2 8 -10 18 -17 15 -13 16 -12 3 4 -13 16 -21 21 -21 13z"/>
<path d="M1801 694 c0 -11 3 -14 6 -6 3 7 2 16 -1 19 -3 4 -6 -2 -5 -13z"/>
<path d="M1318 667 c-3 -15 -2 -30 3 -32 12 -8 16 8 9 35 l-6 25 -6 -28z"/>
<path d="M1040 605 c19 -19 36 -35 39 -35 3 0 -10 16 -29 35 -19 19 -36 35
-39 35 -3 0 10 -16 29 -35z"/>
<path d="M1291 614 c0 -11 3 -14 6 -6 3 7 2 16 -1 19 -3 4 -6 -2 -5 -13z"/>
<path d="M1310 615 c0 -7 7 -12 15 -11 22 3 23 19 3 22 -10 1 -18 -4 -18 -11z"/>
<path d="M1641 614 c0 -11 3 -14 6 -6 3 7 2 16 -1 19 -3 4 -6 -2 -5 -13z"/>
<path d="M1811 594 c0 -11 3 -14 6 -6 3 7 2 16 -1 19 -3 4 -6 -2 -5 -13z"/>
<path d="M1193 533 c-9 -3 -13 -33 -13 -98 l0 -93 43 -3 42 -4 -3 103 -3 102
-27 -1 c-15 0 -33 -3 -39 -6z"/>
<path d="M935 516 l-70 -11 -3 -85 c-2 -46 -7 -87 -11 -90 -5 -3 -3 -11 5 -18
11 -10 14 -10 14 1 0 14 58 27 121 27 l29 0 0 89 c0 77 2 90 18 94 34 9 -33 5
-103 -7z"/>
<path d="M1553 343 c9 -2 23 -2 30 0 6 3 -1 5 -18 5 -16 0 -22 -2 -12 -5z"/>
<path d="M1841 314 c0 -11 3 -14 6 -6 3 7 2 16 -1 19 -3 4 -6 -2 -5 -13z"/>
<path d="M1022 290 c0 -19 2 -27 5 -17 2 9 2 25 0 35 -3 9 -5 1 -5 -18z"/>
<path d="M1340 299 c12 -9 12 -10 -5 -6 -16 3 -20 -1 -20 -23 0 -24 3 -27 21
-19 12 4 24 6 26 3 8 -7 3 31 -6 44 -4 6 -13 12 -19 12 -7 0 -6 -4 3 -11z"/>
<path d="M1493 250 c0 -25 2 -35 4 -22 2 12 2 32 0 45 -2 12 -4 2 -4 -23z"/>
<path d="M1330 1218 c-14 -5 -56 -7 -95 -5 l-70 5 58 -10 c58 -10 194 1 152
13 -12 3 -32 2 -45 -3z"/>
<path d="M1612 1179 c-8 -11 -9 -18 -4 -15 13 8 27 -144 15 -153 -5 -3 -55
-35 -111 -69 -56 -35 -102 -66 -102 -69 0 -3 11 2 24 10 23 15 23 15 51 -44
l29 -59 -30 -33 -29 -32 31 28 c17 15 34 24 39 20 4 -5 5 -3 2 4 -4 6 17 33
50 63 l56 52 -22 45 c-25 51 -22 57 37 91 l39 22 13 -41 c8 -22 18 -43 23 -46
6 -4 7 -1 2 7 -6 10 -3 12 14 7 21 -5 21 -4 8 11 -8 9 -22 40 -31 69 -15 44
-23 54 -51 64 -30 11 -34 18 -37 51 -3 37 -4 38 -16 17z"/>
<path d="M1928 1183 c6 -2 18 -2 25 0 6 3 1 5 -13 5 -14 0 -19 -2 -12 -5z"/>
<path d="M1881 1171 c-9 -6 -10 -11 -2 -15 6 -4 11 -2 11 3 0 6 5 11 11 11 5
0 7 -5 3 -12 -4 -7 -3 -8 5 -4 6 4 9 12 6 17 -8 11 -16 11 -34 0z"/>
<path d="M1234 1154 c10 -10 119 -5 130 6 2 3 -28 5 -68 5 -52 0 -69 -3 -62
-11z"/>
<path d="M1835 1159 c-11 -16 -1 -19 13 -3 7 8 8 14 3 14 -5 0 -13 -5 -16 -11z"/>
<path d="M2008 1163 c7 -3 16 -2 19 1 4 3 -2 6 -13 5 -11 0 -14 -3 -6 -6z"/>
<path d="M1983 1145 c0 -8 4 -12 9 -9 5 3 6 10 3 15 -9 13 -12 11 -12 -6z"/>
<path d="M2045 1150 c3 -5 11 -10 16 -10 6 0 7 5 4 10 -3 6 -11 10 -16 10 -6
0 -7 -4 -4 -10z"/>
<path d="M1561 1103 c-19 -27 -25 -40 -15 -31 18 16 59 78 51 78 -2 0 -18 -21
-36 -47z"/>
<path d="M2119 1137 c6 -8 7 -18 3 -22 -4 -5 -1 -5 6 -1 10 6 10 11 1 22 -6 8
-14 14 -16 14 -3 0 0 -6 6 -13z"/>
<path d="M1836 1117 c3 -10 9 -15 12 -12 3 3 0 11 -7 18 -10 9 -11 8 -5 -6z"/>
<path d="M1856 1078 c7 -10 35 -10 51 0 8 5 -1 8 -21 8 -19 0 -32 -4 -30 -8z"/>
<path d="M1965 1080 c27 -12 43 -12 25 0 -8 5 -22 9 -30 9 -10 0 -8 -3 5 -9z"/>
<path d="M2050 1080 c-35 -7 -35 -7 -5 -9 17 0 37 4 45 9 17 11 11 11 -40 0z"/>
<path d="M1100 1016 c0 -2 8 -10 18 -17 15 -13 16 -12 3 4 -13 16 -21 21 -21
13z"/>
<path d="M1449 983 c-13 -16 -12 -17 4 -4 16 13 21 21 13 21 -2 0 -10 -8 -17
-17z"/>
<path d="M1258 943 c7 -3 16 -2 19 1 4 3 -2 6 -13 5 -11 0 -14 -3 -6 -6z"/>
<path d="M428 767 c-26 -12 -48 -25 -48 -28 0 -11 104 27 108 39 5 16 -4 14
-60 -11z"/>
<path d="M2195 750 c-3 -6 1 -7 9 -4 18 7 21 14 7 14 -6 0 -13 -4 -16 -10z"/>
<path d="M2225 740 c-3 -6 1 -7 9 -4 18 7 21 14 7 14 -6 0 -13 -4 -16 -10z"/>
<path d="M2255 730 c-3 -6 1 -7 9 -4 18 7 21 14 7 14 -6 0 -13 -4 -16 -10z"/>
<path d="M2306 717 c3 -8 11 -14 19 -14 11 0 12 4 4 14 -6 7 -15 13 -20 13 -5
0 -6 -6 -3 -13z"/>
<path d="M284 698 l-19 -23 23 19 c21 18 27 26 19 26 -2 0 -12 -10 -23 -22z"/>
<path d="M2274 668 l-19 -23 23 19 c21 18 27 26 19 26 -2 0 -12 -10 -23 -22z"/>
<path d="M250 650 c-6 -11 -8 -20 -6 -20 3 0 10 9 16 20 6 11 8 20 6 20 -3 0
-10 -9 -16 -20z"/>
<path d="M2125 660 c3 -5 8 -10 11 -10 2 0 4 5 4 10 0 6 -5 10 -11 10 -5 0 -7
-4 -4 -10z"/>
<path d="M320 651 c0 -6 4 -13 10 -16 6 -3 7 1 4 9 -7 18 -14 21 -14 7z"/>
<path d="M2192 651 c-11 -7 -11 -9 0 -14 9 -3 15 1 15 9 0 8 -1 14 -1 14 -1 0
-7 -4 -14 -9z"/>
<path d="M460 639 c0 -6 -7 -9 -15 -5 -8 3 -15 1 -15 -4 0 -6 -20 -10 -44 -10
-30 0 -46 -5 -50 -15 -3 -8 -1 -15 4 -15 6 0 11 -15 11 -32 1 -18 3 -25 6 -15
3 11 14 17 33 17 15 0 41 6 58 13 23 10 29 16 22 27 -5 8 -7 23 -4 33 3 9 3
17 0 17 -3 0 -6 -5 -6 -11z"/>
<path d="M2226 642 c-2 -4 4 -8 14 -8 10 0 16 4 14 8 -3 4 -9 8 -14 8 -5 0
-11 -4 -14 -8z"/>
<path d="M2318 584 c-15 -35 -23 -64 -18 -64 4 0 21 -32 36 -70 15 -39 28 -70
30 -70 1 0 10 33 19 73 10 39 21 77 26 82 4 6 4 17 -1 25 -6 8 -10 11 -10 5 0
-5 -5 -2 -11 8 -5 9 -7 22 -3 29 4 7 3 8 -4 4 -6 -4 -17 4 -24 18 -13 24 -14
24 -40 -40z"/>
<path d="M188 555 l-46 -66 26 -59 c25 -53 28 -56 37 -36 16 36 77 116 85 111
4 -2 7 2 7 10 0 8 -4 15 -8 15 -5 0 -19 21 -32 46 l-23 46 -46 -67z"/>
<path d="M2243 585 c0 -22 2 -30 4 -17 2 12 2 30 0 40 -3 9 -5 -1 -4 -23z"/>
<path d="M2182 560 c0 -14 2 -19 5 -12 2 6 2 18 0 25 -3 6 -5 1 -5 -13z"/>
<path d="M115 440 c-9 -16 -13 -30 -11 -30 3 0 12 14 21 30 9 17 13 30 11 30
-3 0 -12 -13 -21 -30z"/>
<path d="M371 444 c0 -11 3 -14 6 -6 3 7 2 16 -1 19 -3 4 -6 -2 -5 -13z"/>
</g>
</svg>
